# xmcd
#
# Track frame offsets:
#	183
#	11545
#	26620
#	36293
#	53018
#	65093
#	77018
#	88043
#	101618
#	110768
#	123370
#	138895
#	150293
#	161993
#	173845
#	184945
#
# Disc length: 2623 seconds
#
# Revision: 715044184
# Processed by: cddbd v1.5.2PL0 Copyright (c) Steve Scherf et al.
# Submitted via: EZCDAudioConverter 8.3.2.1
#
DISCID=ce0a3d10
DTITLE=Various Artist - NASHVILLE'S FINEST
DYEAR=1988
DGENRE=Country
TTITLE0=BILLY GRAMMER - GOTTA TRAVEL ON
TTITLE1=TOMMY CASH - THE COWBOY AND THE LADY
TTITLE2=DOLLY PARTON - SOMETHING FISHY
TTITLE3=KRIS KRISTOFFERSON and RITA COOLIDGE - RAIN
TTITLE4=RAY PRICE - FEET
TTITLE5=HENSON CARGILL - SKIP A ROPE
TTITLE6=JIM GLAZER - WHY DIDN'T I THINK OF THAT
TTITLE7=CHARLIE MCCOY - SHENANDOAH
TTITLE8=ED BRUCE - SONG FOR GINNY
TTITLE9=BILLY WALKER - SUNDOWN MARY
TTITLE10=EDDY RAVEN - YOU'RE A DANCER
TTITLE11=WILLIE NELSON - I NEVER CARED FOR YOU
TTITLE12=CONNIE SMITH - LOVIN' YOU BABY
TTITLE13=LLOYD GREEN - I CAN SEE CLEARLY NOW
TTITLE14=ROY ORBISON - ONLY THE LONELY
TTITLE15=MY HEART'S IN MEXICO - UNKNOWN TITLE
EXTD=
EXTT0=
EXTT1=
EXTT2=
EXTT3=
EXTT4=
EXTT5=
EXTT6=
EXTT7=
EXTT8=
EXTT9=
EXTT10=
EXTT11=
EXTT12=
EXTT13=
EXTT14=
EXTT15=
PLAYORDER=
